<?xml version="1.0" standalone="no"?>
<!DOCTYPE svg PUBLIC "-//W3C//DTD SVG 20010904//EN"
 "http://www.w3.org/TR/2001/REC-SVG-20010904/DTD/svg10.dtd">
<svg version="1.0" xmlns="http://www.w3.org/2000/svg"
 width="2400.000000pt" height="2400.000000pt" viewBox="0 0 2400.000000 2400.000000"
 preserveAspectRatio="xMidYMid meet">
<metadata>
Created by potrace 1.15, written by Peter Selinger 2001-2017
</metadata>
<g transform="translate(0.000000,2400.000000) scale(0.100000,-0.100000)"
fill="#000000" stroke="none">
<path d="M2680 23989 c-342 -36 -722 -148 -1035 -307 -206 -104 -442 -260
-583 -385 -246 -218 -411 -403 -552 -617 -34 -52 -71 -107 -82 -123 -10 -15
-52 -91 -93 -170 -171 -328 -276 -674 -321 -1052 -12 -103 -14 -1436 -14
-9330 0 -6005 4 -9243 10 -9305 28 -267 107 -594 195 -805 9 -22 24 -58 33
-80 9 -22 42 -92 74 -156 290 -587 780 -1074 1363 -1354 180 -87 208 -99 324
-139 208 -72 491 -136 681 -153 112 -10 18543 -10 18640 0 675 70 1317 376
1805 862 61 61 167 179 207 231 13 16 31 38 40 48 10 11 30 38 45 60 15 23 31
43 34 46 8 7 87 130 141 220 208 345 359 810 398 1225 14 154 14 18477 0
18595 -25 202 -33 248 -70 407 -163 687 -580 1309 -1155 1724 -436 315 -936
506 -1464 559 -130 13 -18495 12 -18621 -1z m9446 -3200 c319 -56 555 -273
646 -594 l23 -80 3 -5825 c2 -4010 0 -5859 -8 -5935 -5 -60 -18 -138 -29 -171
-87 -286 -340 -507 -634 -554 -92 -15 -245 -8 -332 15 -73 19 -229 95 -270
131 -169 146 -252 271 -298 452 l-22 87 0 5890 c0 5702 1 5893 19 5970 57 246
228 455 456 555 138 62 308 84 446 59z m-3965 -423 c298 -64 528 -285 612
-590 l22 -81 0 -5435 c0 -4502 -2 -5444 -13 -5490 -75 -308 -271 -518 -572
-612 -108 -33 -311 -33 -420 0 -173 53 -294 134 -425 287 -41 48 -113 203
-135 289 -20 79 -20 118 -20 5520 0 5360 0 5442 20 5522 69 291 309 525 604
589 81 18 245 18 327 1z m8074 -20 c308 -100 522 -363 556 -685 12 -116 11
-10731 -2 -10831 -21 -173 -110 -350 -236 -472 -105 -101 -198 -155 -343 -200
-109 -33 -312 -33 -420 0 -179 56 -296 135 -425 287 -44 52 -112 196 -134 285
l-21 84 0 5437 c0 3432 4 5454 10 5485 61 312 301 559 614 630 100 22 302 13
401 -20z m-12033 -1587 c286 -79 487 -283 572 -579 l21 -75 3 -3635 c2 -2598
0 -3663 -8 -3732 -40 -354 -298 -639 -636 -704 -261 -50 -526 31 -714 218
-106 106 -171 222 -212 378 l-23 85 0 3690 0 3690 22 84 c52 193 148 336 303
451 193 143 446 191 672 129z m15999 0 c292 -81 508 -304 575 -594 18 -77 19
-205 19 -3770 0 -3414 -1 -3694 -17 -3750 -76 -276 -246 -474 -489 -572 -182
-73 -413 -69 -599 11 -277 118 -451 361 -480 670 -8 76 -10 1260 -8 3731 l3
3620 23 79 c54 193 150 333 302 446 192 143 446 191 671 129z m-16035 -11578
c99 -21 230 -79 301 -134 90 -70 199 -153 219 -167 480 -330 767 -498 1259
-740 324 -159 353 -172 605 -280 523 -222 1121 -427 1705 -583 925 -248 1903
-399 2960 -457 452 -25 1306 -22 1685 6 36 2 162 11 280 20 394 27 893 88
1325 160 209 35 605 111 720 139 33 7 112 26 175 40 744 172 1591 458 2300
777 144 65 581 280 660 325 19 11 89 50 155 87 66 36 136 76 157 89 20 12 74
44 120 71 45 28 169 106 273 175 168 111 255 173 439 315 255 197 568 230 851
89 273 -136 437 -401 437 -707 0 -249 -106 -467 -303 -627 -144 -117 -131
-108 -324 -245 -204 -145 -612 -403 -815 -516 -123 -68 -168 -93 -200 -111
-126 -71 -651 -330 -830 -410 -101 -45 -454 -194 -545 -230 -297 -118 -859
-315 -1090 -382 -49 -15 -128 -38 -175 -52 -152 -45 -480 -132 -690 -183 -943
-227 -1892 -361 -2985 -422 -439 -24 -1598 -14 -1950 17 -27 3 -117 9 -200 15
-1527 110 -3108 468 -4470 1012 -114 45 -256 103 -300 123 -16 7 -68 30 -115
50 -84 36 -129 57 -345 158 -110 51 -520 257 -585 294 -19 11 -87 48 -150 83
-458 254 -1035 640 -1262 845 -211 192 -303 515 -223 790 63 215 200 386 397
493 159 86 347 112 534 73z"/>
</g>
</svg>
